<?xml version="1.0" encoding="utf-8"?>
<!-- Generator: Adobe Illustrator 19.0.0, SVG Export Plug-In . SVG Version: 6.00 Build 0)  -->
<svg version="1.1" id="Layer_1" xmlns="http://www.w3.org/2000/svg" xmlns:xlink="http://www.w3.org/1999/xlink" x="0px" y="0px"
	 viewBox="-393 31 500 500" style="enable-background:new -393 31 500 500;" xml:space="preserve">
<style type="text/css">
	.st0{fill:#1DA362;}
	.st1{fill:#C7C7C7;}
	.st2{fill:#4789F4;}
	.st3{fill:#FFDC45;}
	.st4{fill:#DB483B;}
	.st5{fill:#7F2A25;}
</style>
<g id="XMLID_24_">
	<path id="XMLID_31_" class="st0" d="M-294.1,137c-13.3,0-23.9,10.2-23.9,23.5v261.7L-32.4,137H-294.1z M-209.6,248.2
		c-5.1,4.7-11.5,7.9-18.3,9.5c-7.5,1.7-15.4,1.7-22.8-0.2c-5.9-1.6-11.4-4.4-16.2-8.2c-5.1-4-9.2-9.1-12.1-14.9
		c-4.5-8.8-5.8-19.2-3.9-28.9c0.8-3.9,2.1-7.7,3.9-11.2c5.1-10.3,14.4-18.4,25.3-22.1c9.7-3.3,20.5-3.3,30.1,0.3
		c5.3,2,10.2,5,14.4,8.9c-1.4,1.5-2.9,2.9-4.3,4.4c-2.7,2.7-5.5,5.5-8.2,8.2c-2.7-2.6-6-4.6-9.6-5.7c-4.2-1.3-8.8-1.5-13.1-0.5
		c-5,1.1-9.7,3.7-13.3,7.4c-2.9,3-5.1,6.6-6.5,10.5c-1.9,5.6-1.9,11.8,0,17.4c1.9,5.5,5.5,10.4,10.2,13.7c3,2.1,6.4,3.6,9.9,4.3
		s7.1,0.6,10.7,0c3.5-0.6,6.9-1.9,9.8-3.9c4.7-3.1,8-8.2,8.9-13.8c-8.1,0-16.2,0-24.3,0c0-5.8,0-11.6,0-17.4c14,0,28,0,42,0
		c1.4,7.8,1.1,16-1.1,23.7C-200.3,236.7-204.2,243.2-209.6,248.2z"/>
	<polyline id="XMLID_32_" class="st1" points="-5,166.7 -131.5,293.4 -5,419.9 -5,166.7 	"/>
	<polygon id="XMLID_33_" class="st2" points="-160.4,322.4 -287.8,450 -32.8,450 	"/>
	<path id="XMLID_34_" class="st3" d="M-5,160.8c0-13.2-10.9-23.8-24.2-23.8h-3.6L-318,422.2v3.6c0,13.2,10.6,24.2,23.9,24.2h5.9
		L-5,166.8V160.8z"/>
	<path id="XMLID_35_" class="st4" d="M31.8,187.2c-0.8-31.5-32.3-75.4-85-75.4s-84.2,43.9-85,75.4s12.7,52.2,41.4,90.6
		c28.7,38.4,36.5,76.9,37,87.2c0.5,10.3,3.3,12.5,6.5,12.5c3.3,0,6.1-2.2,6.6-12.5s8.4-48.7,37-87.2S32.5,218.8,31.8,187.2z"/>
	<circle id="XMLID_36_" class="st5" cx="-53.3" cy="191.4" r="27.5"/>
</g>
</svg>
