<svg id="confirm_1_" data-name="confirm(1)" xmlns="http://www.w3.org/2000/svg" width="28" height="28" viewBox="0 0 23.339 23.339">
  <g id="Group_530" data-name="Group 530" transform="translate(3.011 6.023)">
    <path id="Path_2146" data-name="Path 2146" d="M64,392H74.54v1.882H64Zm0,0" transform="translate(-64 -379.578)" fill="#f0bc5e"/>
    <path id="Path_2147" data-name="Path 2147" d="M68.517,132.517H64V128h4.517Zm0,0" transform="translate(-64 -128)" fill="#f0bc5e"/>
    <path id="Path_2148" data-name="Path 2148" d="M68.517,276.517H64V272h4.517Zm0,0" transform="translate(-64 -265.224)" fill="#f0bc5e"/>
  </g>
  <path id="Path_2149" data-name="Path 2149" d="M23.339,6.776H16.563V1.882A1.131,1.131,0,0,0,15.434.753H11.976A1.128,1.128,0,0,0,10.917,0H5.646a1.128,1.128,0,0,0-1.06.753H1.129A1.131,1.131,0,0,0,0,1.882V22.209a1.131,1.131,0,0,0,1.129,1.129h14.3a1.131,1.131,0,0,0,1.129-1.129V17.316h6.776ZM4.586,3.011a1.128,1.128,0,0,0,1.06.753h5.27a1.128,1.128,0,0,0,1.06-.753H14.3V6.776H8.281v10.54H14.3V21.08H2.259V3.011ZM15.81,12.046a2.627,2.627,0,0,1-1.732-.651L9.66,7.529h12.3l-4.419,3.866a2.627,2.627,0,0,1-1.732.651ZM9.034,7.982l4.549,3.98c.055.049.114.093.172.137L9.034,16.124Zm.645,8.581,4.76-4.058a3.348,3.348,0,0,0,2.742,0l4.76,4.058ZM17.865,12.1c.058-.044.117-.089.172-.137l4.549-3.98v8.142ZM15.81,1.882V6.776h-.753V2.259H12.046V1.506h3.388A.377.377,0,0,1,15.81,1.882ZM5.27,1.129A.377.377,0,0,1,5.646.753h5.27a.377.377,0,0,1,.376.376V2.635a.377.377,0,0,1-.376.376H5.646a.377.377,0,0,1-.376-.376Zm10.54,21.08a.377.377,0,0,1-.376.376H1.129a.377.377,0,0,1-.376-.376V1.882a.377.377,0,0,1,.376-.376H4.517v.753H1.506V21.833H15.057V17.316h.753Zm0,0" fill="#000"/>
  <path id="Path_2150" data-name="Path 2150" d="M87.85,100.108l-.636-.4-2.428,3.817-.809-.54-.418.626,1.449.966Zm0,0" transform="translate(-79.627 -95.012)" fill="#000"/>
  <path id="Path_2151" data-name="Path 2151" d="M87.85,244.108l-.636-.4-2.428,3.817-.809-.54-.418.626,1.449.966Zm0,0" transform="translate(-79.627 -232.236)" fill="#000"/>
  <path id="Path_2152" data-name="Path 2152" d="M272,416h.753v.753H272Zm0,0" transform="translate(-259.201 -396.426)" fill="#000"/>
  <path id="Path_2153" data-name="Path 2153" d="M64,416h9.034v.753H64Zm0,0" transform="translate(-60.989 -396.426)" fill="#000"/>
  <path id="Path_2154" data-name="Path 2154" d="M64,384H74.54v.753H64Zm0,0" transform="translate(-60.989 -365.931)" fill="#000"/>
</svg>
