<svg id="ironing" xmlns="http://www.w3.org/2000/svg" width="45" height="35" viewBox="0 0 29 30.979">
  <g id="Group_505" data-name="Group 505" transform="translate(1.187 16.573)">
    <path id="Path_333" data-name="Path 333" d="M127.7,288.315a.913.913,0,0,1-.913-.913v-9.626a2.04,2.04,0,0,0-4.08,0V287.4a.913.913,0,1,1-1.827,0v-9.626a3.867,3.867,0,0,1,7.733,0V287.4A.913.913,0,0,1,127.7,288.315Z" transform="translate(-120.876 -273.909)" fill="#ba6746"/>
    <path id="Path_334" data-name="Path 334" d="M127.7,420.891h-5.906a.913.913,0,1,1,0-1.827H127.7a.913.913,0,1,1,0,1.827Z" transform="translate(-120.878 -410.281)" fill="#ba6746"/>
  </g>
  <path id="Path_335" data-name="Path 335" d="M110.3,272.7h-7.977a1.066,1.066,0,1,1,0-2.131H110.3a1.066,1.066,0,0,1,0,2.131Z" transform="translate(-101.253 -254.196)" fill="#e28c71"/>
  <path id="Path_336" data-name="Path 336" d="M156.251,208.751h-2.293a2.679,2.679,0,0,0-2.291,1.3l-1.066,1.79a.439.439,0,0,0,.377.664h5.273a1.166,1.166,0,0,0,1.164-1.164v-1.428A1.166,1.166,0,0,0,156.251,208.751Zm.286,1.536a.244.244,0,0,1-.244.244h-1.885a.244.244,0,0,1-.244-.244V209.9a.244.244,0,0,1,.244-.244h1.885a.244.244,0,0,1,.244.244Z" transform="translate(-147.557 -196.12)" fill="#41a0d7"/>
  <path id="Path_337" data-name="Path 337" d="M150.56,262.158a.438.438,0,0,0,.43.526h5.273a1.164,1.164,0,0,0,.972-.525H150.56Z" transform="translate(-147.569 -246.296)" fill="#3c698c"/>
  <ellipse id="Ellipse_8" data-name="Ellipse 8" cx="2.563" cy="2.563" rx="2.563" ry="2.563" transform="translate(9.759 0)" fill="#ffb69e"/>
  <path id="Path_338" data-name="Path 338" d="M363.809,272.494h0a1.461,1.461,0,0,0,1.461-1.462l-.006-12.5a1.461,1.461,0,0,0-1.461-1.461h0a1.461,1.461,0,0,0-1.461,1.462l.006,12.5A1.461,1.461,0,0,0,363.809,272.494Z" transform="translate(-346.545 -241.516)" fill="#5f6e9b"/>
  <path id="Path_339" data-name="Path 339" d="M271.634,259.839a1.461,1.461,0,0,0,1.127-1.732l-1.492-7.043,2-5.465a1.461,1.461,0,0,0-2.744-1.006l-2.149,5.86a1.462,1.462,0,0,0-.058.806l1.579,7.455A1.461,1.461,0,0,0,271.634,259.839Z" transform="translate(-258.184 -228.892)" fill="#414b82"/>
  <path id="Path_340" data-name="Path 340" d="M281.5,105.8l7.073-.581-.789-9.592a1.876,1.876,0,0,0-2.023-1.716l-3.334.274a1.876,1.876,0,0,0-1.716,2.023Z" transform="translate(-269.851 -88.223)" fill="#64afff"/>
  <path id="Path_341" data-name="Path 341" d="M223.079,110.263a1.246,1.246,0,0,1,1.043-1.42l3.894-.6,2.291-3.927a1.246,1.246,0,1,1,2.152,1.255l-2.591,4.44a1.246,1.246,0,0,1-.887.6l-4.481.687A1.246,1.246,0,0,1,223.079,110.263Z" transform="translate(-215.694 -97.427)" fill="#ffb69e"/>
  <path id="Path_342" data-name="Path 342" d="M323.221,107.665l1.219-2.09a1.246,1.246,0,1,0-2.152-1.255l-1.318,2.259Z" transform="translate(-307.676 -97.426)" fill="#4699f2"/>
</svg>
