<svg id="Delivery" xmlns="http://www.w3.org/2000/svg" width="30" height="28" viewBox="0 0 24 23.676">
  <rect id="Rectangle_242" data-name="Rectangle 242" width="21.5" height="20.306" transform="translate(2.101 1.593)" fill="#ffe2bd"/>
  <path id="Path_2155" data-name="Path 2155" d="M11,32.926H30.908V17C30.908,25.8,22,32.926,11,32.926Z" transform="translate(-7.306 -11.028)" fill="#ffdaaa"/>
  <path id="Path_2156" data-name="Path 2156" d="M12.337,33.612l.07.27a2.389,2.389,0,0,0,.622,1.086l3.791,3.79h0L18.367,40.3a.8.8,0,1,0,1.126-1.126l.563.563a.8.8,0,0,0,1.126,0,.794.794,0,0,0,.23-.586h0a.792.792,0,0,0-.23-.541l.563.563a.8.8,0,0,0,1.126-1.126l.728.728a.8.8,0,0,0,1.174-.052.827.827,0,0,0-.08-1.106l-3.417-3.417a.6.6,0,0,1,0-.849l.01-.011a.581.581,0,0,1,.821,0l1,1a1.194,1.194,0,0,0,1.689,0l.281-.281-2.242-2.979A6.37,6.37,0,0,0,19.168,28.7l-1.991-.457a.8.8,0,0,1-.385-.213l-.683-.683L11.328,32.14l.387.386A2.389,2.389,0,0,1,12.337,33.612Z" transform="translate(-7.503 -17.257)" fill="#fff1f2"/>
  <rect id="Rectangle_243" data-name="Rectangle 243" width="3.982" height="4.778" transform="translate(10.861 1.593)" fill="#ffaf46"/>
  <path id="Path_2157" data-name="Path 2157" d="M2.948,2,2.913,15.556l2.424,2.371,6.769-6.769Z" transform="translate(-2.439 -2)" fill="#398df3"/>
  <path id="Path_2158" data-name="Path 2158" d="M25.324,3.221H4.246l-1.06-1.06a.4.4,0,0,0-.563.563L10.9,11,4.7,17.19l-2.3-2.3a.4.4,0,1,0-.563.563L3.425,17.04v6.487a.4.4,0,0,0,.4.4h7.05L12.3,25.355a1.168,1.168,0,0,0,.824.347h.031A1.172,1.172,0,0,0,14,25.355a1.185,1.185,0,0,0,.251-.37,1.2,1.2,0,0,0,1.689-.562,1.163,1.163,0,0,0,.587.154,1.234,1.234,0,0,0,.85-.347,1.194,1.194,0,0,0,.235-.333,1.2,1.2,0,0,0,1.508.028h6.207a.4.4,0,0,0,.4-.4V3.619A.4.4,0,0,0,25.324,3.221Zm-9.158.8V8H12.981V4.017ZM4.222,23.129V17.836l.2.2a.4.4,0,0,0,.563,0l.563-.563.1.1a2,2,0,0,1,.518.9l.07.27a2.791,2.791,0,0,0,.726,1.267l3.112,3.111Zm14.153.253a.412.412,0,0,1-.276-.114l-.728-.728h0a.4.4,0,0,0-.563.563.4.4,0,0,1,0,.563.382.382,0,0,1-.287.114.406.406,0,0,1-.276-.114l-.563-.563a.4.4,0,0,0-.563.563h0a.4.4,0,0,1,0,.562.416.416,0,0,1-.287.114.342.342,0,0,1-.276-.114l-.563-.562a.4.4,0,0,0-.563.563.4.4,0,0,1,0,.563.367.367,0,0,1-.287.114.393.393,0,0,1-.276-.114L7.531,19.454a1.991,1.991,0,0,1-.518-.9l-.07-.27a2.792,2.792,0,0,0-.726-1.266l-.1-.1,4.22-4.223.4.4a1.192,1.192,0,0,0,.577.319l1.991.457a5.983,5.983,0,0,1,3.432,2.23l2.035,2.7-.037.037a.789.789,0,0,1-.563.233h0a.793.793,0,0,1-.563-.234l-1-1a.97.97,0,0,0-.692-.287h0a1,1,0,0,0-.7,1.709l3.417,3.417a.431.431,0,0,1,.057.568h0a.42.42,0,0,1-.315.14Zm6.551-.253H19.558a1.261,1.261,0,0,0-.364-1.019l-3.417-3.417a.2.2,0,0,1-.059-.143.216.216,0,0,1,.07-.154.183.183,0,0,1,.258,0l1,1a1.584,1.584,0,0,0,1.126.467h0a1.58,1.58,0,0,0,1.126-.467l.281-.281a.4.4,0,0,0,.037-.521l-2.243-2.978a6.779,6.779,0,0,0-3.89-2.525l-1.991-.457a.4.4,0,0,1-.193-.107l-.4-.4.845-.845a.4.4,0,0,0,0-.563l-6.695-6.7h7.142V8.4a.4.4,0,0,0,.4.4h3.982a.4.4,0,0,0,.4-.4V4.017h7.963Z" transform="translate(-1.722 -2.026)"/>
  <path id="Path_2159" data-name="Path 2159" d="M47.4,45.8h1.991a.4.4,0,0,0,0-.8H47.4a.4.4,0,0,0,0,.8Z" transform="translate(-28.972 -27.879)"/>
  <path id="Path_2160" data-name="Path 2160" d="M55.4,45.8h.4a.4.4,0,1,0,0-.8h-.4a.4.4,0,0,0,0,.8Z" transform="translate(-33.787 -27.879)"/>
  <path id="Path_2161" data-name="Path 2161" d="M47.4,41.8h1.991a.4.4,0,0,0,0-.8H47.4a.4.4,0,1,0,0,.8Z" transform="translate(-28.972 -25.472)"/>
  <path id="Path_2162" data-name="Path 2162" d="M55.4,41.8h.4a.4.4,0,0,0,0-.8h-.4a.4.4,0,1,0,0,.8Z" transform="translate(-33.787 -25.472)"/>
  <path id="Path_2163" data-name="Path 2163" d="M48.185,49H45.4a.4.4,0,0,0,0,.8h2.787a.4.4,0,0,0,0-.8Z" transform="translate(-27.769 -30.287)"/>
  <path id="Path_2164" data-name="Path 2164" d="M55.4,49.8h.4a.4.4,0,1,0,0-.8h-.4a.4.4,0,0,0,0,.8Z" transform="translate(-33.787 -30.287)"/>
</svg>
